<svg width="95" height="57" viewBox="0 0 95 57" fill="none" xmlns="http://www.w3.org/2000/svg">
<g clip-path="url(#clip0_9_25)">
<path d="M47.5003 0C24.1524 0 5.21976 13.0176 5.21976 29.0762C5.21976 41.9228 17.3344 52.822 34.1338 56.6666C36.2468 56.9358 37.0227 56.0358 37.0227 55.2678C37.0227 54.5745 36.9831 52.2841 36.9653 49.8547C25.2028 51.6133 22.7208 46.4239 22.7208 46.4239C20.7974 43.0631 18.026 42.1693 18.026 42.1693C14.1901 40.3648 18.3154 40.402 18.3154 40.402C22.5609 40.6069 24.7965 43.3982 24.7965 43.3982C28.5677 47.8432 34.6877 46.5582 37.1004 45.8151C37.4799 43.9361 38.5755 42.6531 39.7848 41.9271C30.3937 41.1921 20.5216 38.6988 20.5216 27.5577C20.5216 24.3832 22.1731 21.7893 24.8778 19.7531C24.4388 19.0207 22.9917 16.0636 25.2873 12.0584C25.2873 12.0584 28.8379 11.2769 36.9177 15.0389C40.2902 14.3947 43.9072 14.0716 47.5003 14.0605C51.0935 14.0716 54.7134 14.3944 58.0922 15.0389C66.1621 11.2772 69.7077 12.0586 69.7077 12.0586C72.009 16.0634 70.5612 19.0209 70.1222 19.7531C72.8331 21.7893 74.4734 24.3832 74.4734 27.5577C74.4734 38.7254 64.5825 41.1843 55.1676 41.9042C56.684 42.8065 58.0353 44.576 58.0353 47.2887C58.0353 51.179 57.9865 54.3101 57.9865 55.2678C57.9865 56.0417 58.7475 56.9483 60.8906 56.6625C77.6808 52.8138 89.7802 41.9187 89.7802 29.0765C89.7802 13.0176 70.8502 0 47.5003 0ZM21.0554 41.4197C20.9622 41.5641 20.6316 41.6075 20.3306 41.5083C20.0238 41.4135 19.8517 41.2166 19.9508 41.0717C20.0419 40.9229 20.3733 40.8813 20.6791 40.981C20.9863 41.076 21.1614 41.2747 21.0554 41.4197ZM23.135 42.6958C22.9335 42.8244 22.5391 42.7647 22.2716 42.5616C21.9951 42.359 21.9432 42.0877 22.1477 41.9574C22.3558 41.8288 22.738 41.889 23.0151 42.0916C23.2919 42.2967 23.3454 42.5659 23.135 42.6958ZM24.562 44.3286C24.3027 44.4524 23.8792 44.3364 23.6173 44.0779C23.3583 43.8194 23.3583 43.5093 23.6229 43.385C23.8855 43.2608 24.3027 43.3725 24.5679 43.6292C24.8262 43.892 24.8262 44.2021 24.5616 44.3289L24.562 44.3286ZM26.9746 46.2197C26.743 46.3955 26.2492 46.3483 25.8879 46.1084C25.5182 45.874 25.4155 45.5414 25.648 45.3656C25.8826 45.1893 26.379 45.2389 26.743 45.4769C27.1097 45.7109 27.222 46.0459 26.9746 46.2197ZM30.0934 46.858C29.991 47.0859 29.5154 47.1894 29.0367 47.0927C28.5584 46.993 28.2456 46.7263 28.3421 46.4962C28.4415 46.2667 28.9191 46.1591 29.4014 46.2626C29.879 46.3617 30.1928 46.6266 30.0934 46.8582V46.858ZM33.6423 47.129C33.6542 47.3687 33.2482 47.5674 32.7455 47.572C32.2401 47.5797 31.8309 47.3857 31.8252 47.1495C31.8252 46.9075 32.2223 46.7106 32.728 46.7047C33.2307 46.6979 33.6423 46.8905 33.6423 47.129ZM37.1288 47.037C37.1889 47.271 36.8397 47.5113 36.3403 47.5754C35.8498 47.6369 35.3953 47.4925 35.3329 47.2605C35.2721 47.0207 35.6278 46.7803 36.1177 46.7183C36.6178 46.6586 37.065 46.7992 37.1288 47.037Z" fill="#F2EDD6" fill-opacity="0.6"/>
</g>
<defs>
<clipPath id="clip0_9_25">
<rect width="94.2384" height="56.2618" fill="white" transform="scale(1.00808)"/>
</clipPath>
</defs>
</svg>
